<?xml version="1.0" encoding="UTF-8" standalone="no"?>
<!-- Created with Inkscape (http://www.inkscape.org/) -->

<svg
   xmlns:dc="http://purl.org/dc/elements/1.1/"
   xmlns:cc="http://creativecommons.org/ns#"
   xmlns:rdf="http://www.w3.org/1999/02/22-rdf-syntax-ns#"
   xmlns:svg="http://www.w3.org/2000/svg"
   xmlns="http://www.w3.org/2000/svg"
   xmlns:sodipodi="http://sodipodi.sourceforge.net/DTD/sodipodi-0.dtd"
   xmlns:inkscape="http://www.inkscape.org/namespaces/inkscape"
   width="160"
   height="30"
   viewBox="0 0 160 30"
   id="svg4369"
   version="1.1"
   inkscape:version="0.91 r13725"
   sodipodi:docname="battlenet.svg">
  <defs
     id="defs4371">
    <inkscape:perspective
       id="perspective10"
       inkscape:persp3d-origin="372.04724 : 350.78739 : 1"
       inkscape:vp_z="744.09447 : 526.18108 : 1"
       inkscape:vp_y="0 : 999.99998 : 0"
       inkscape:vp_x="0 : 526.18108 : 1"
       sodipodi:type="inkscape:persp3d" />
    <marker
       id="ArrowStart"
       viewBox="0 0 10 10"
       refX="10"
       refY="5"
       markerUnits="strokeWidth"
       markerWidth="4"
       markerHeight="3"
       orient="auto">
      <path
         inkscape:connector-curvature="0"
         d="M 10,0 0,5 10,10 Z"
         id="path2824" />
    </marker>
    <marker
       id="ArrowEnd"
       viewBox="0 0 10 10"
       refX="0"
       refY="5"
       markerUnits="strokeWidth"
       markerWidth="4"
       markerHeight="3"
       orient="auto">
      <path
         inkscape:connector-curvature="0"
         d="M 0,0 10,5 0,10 Z"
         id="path2821" />
    </marker>
    <inkscape:perspective
       sodipodi:type="inkscape:persp3d"
       inkscape:vp_x="0 : 91.203001 : 1"
       inkscape:vp_y="0 : 999.99998 : 0"
       inkscape:vp_z="182.287 : 91.203001 : 1"
       inkscape:persp3d-origin="91.1435 : 60.802001 : 1"
       id="perspective2844" />
    <marker
       id="ArrowStart-7"
       viewBox="0 0 10 10"
       refX="10"
       refY="5"
       markerUnits="strokeWidth"
       markerWidth="4"
       markerHeight="3"
       orient="auto">
      <path
         inkscape:connector-curvature="0"
         d="M 10,0 0,5 10,10 Z"
         id="path2884" />
    </marker>
    <marker
       id="ArrowEnd-1"
       viewBox="0 0 10 10"
       refX="0"
       refY="5"
       markerUnits="strokeWidth"
       markerWidth="4"
       markerHeight="3"
       orient="auto">
      <path
         inkscape:connector-curvature="0"
         d="M 0,0 10,5 0,10 Z"
         id="path2881" />
    </marker>
    <inkscape:perspective
       sodipodi:type="inkscape:persp3d"
       inkscape:vp_x="0 : 91.203001 : 1"
       inkscape:vp_y="0 : 999.99998 : 0"
       inkscape:vp_z="182.287 : 91.203001 : 1"
       inkscape:persp3d-origin="91.1435 : 60.802001 : 1"
       id="perspective2904" />
  </defs>
  <sodipodi:namedview
     id="base"
     pagecolor="#ffffff"
     bordercolor="#666666"
     borderopacity="1.0"
     inkscape:pageopacity="0.0"
     inkscape:pageshadow="2"
     inkscape:zoom="5.6"
     inkscape:cx="73.010944"
     inkscape:cy="8.4931572"
     inkscape:document-units="px"
     inkscape:current-layer="layer1"
     showgrid="false"
     inkscape:window-width="1360"
     inkscape:window-height="705"
     inkscape:window-x="-8"
     inkscape:window-y="-8"
     inkscape:window-maximized="1"
     units="px" />
  <metadata
     id="metadata4374">
    <rdf:RDF>
      <cc:Work
         rdf:about="">
        <dc:format>image/svg+xml</dc:format>
        <dc:type
           rdf:resource="http://purl.org/dc/dcmitype/StillImage" />
        <dc:title></dc:title>
      </cc:Work>
    </rdf:RDF>
  </metadata>
  <g
     inkscape:label="Layer 1"
     inkscape:groupmode="layer"
     id="layer1"
     transform="translate(0,-1022.3622)">
    <rect
       style="fill:#e6e6e6;fill-opacity:1"
       id="rect4383"
       width="160"
       height="30"
       x="0"
       y="1022.3622" />
    <g
       id="g4455"
       transform="matrix(0.64247404,0,0,0.64247404,3.0941004,1021.2214)">
      <path
         id="path4445"
         d="m 38.072,21.627 c 0,0 3.288,0.167 3.288,-1.768 0,-2.527 -4.378,-4.806 -4.378,-4.806 0,0 0.685,-1.456 1.113,-2.269 0.428,-0.813 1.633,-3.987 1.741,-4.712 0.136,-0.911 -0.071,-1.198 -0.071,-1.198 -0.298,1.953 -3.476,7.575 -3.728,7.768 -3.102,-1.454 -7.363,-1.859 -7.363,-1.859 0,0 -4.17,-8.783 -8.092,-8.783 -3.889,0 -3.87,7.521 -3.87,7.521 0,0 -1.099,-2.133 -2.478,-2.133 -2.016,0 -2.678,3.051 -2.678,6.358 -3.982,0 -7.332,0.89 -7.632,0.976 -0.3,0.086 -1.242,0.771 -0.813,0.685 0.871,-0.279 4.963,-0.912 8.545,-0.601 0.197,3.144 2.032,7.238 2.032,7.238 0,0 -3.935,5.701 -3.935,9.773 0,1.072 0.401,3.182 3.227,3.182 2.366,0 5.089,-1.574 5.59,-1.863 -0.437,0.624 -0.76,1.811 -0.76,2.355 0,0.257 0.099,0.779 0.519,1.181 0.666,-0.666 1.325,-1.325 2.134,-2.134 -0.874,-0.16 -0.992,-0.808 -0.992,-0.974 0,-0.588 0.46,-1.283 0.46,-1.283 0,0 2.126,-1.437 2.26,-1.59 l 1.571,2.931 c 0,0 -1.608,0.953 -2.872,0.953 -0.159,0 -0.3,-0.013 -0.426,-0.036 -0.81,0.81 -1.469,1.469 -2.134,2.134 0.311,0.298 0.794,0.531 1.57,0.531 2.344,0 4.962,-1.797 4.962,-1.797 0,0 2.472,4.109 4.585,5.992 0.57,0.508 1.114,0.6 1.114,0.6 0,0 -2.099,-2.022 -4.865,-7.23 2.57,-1.589 5.247,-5.336 5.247,-5.336 0,0 0.315,0.01 2.756,0.01 3.825,0 9.258,-0.805 9.258,-3.845 -10e-4,-3.136 -4.885,-5.971 -4.885,-5.971 z m 0.427,-1.889 c 0,1.109 -1.056,1.096 -1.056,1.096 l -0.802,0.053 -2.446,-1.176 c 0,0 1.43,-2.205 1.764,-2.82 0.255,0.147 2.54,1.577 2.54,2.847 z M 15.372,11.864 c 0.571,0 1.131,0.695 1.361,1.284 0,0.389 0.203,2.662 0.203,2.662 l -3.301,-0.124 c 0,-2.978 1.167,-3.822 1.737,-3.822 z m -0.341,20.675 c -1.803,0 -2.176,-1.005 -2.176,-1.91 0,-2.049 1.635,-4.914 1.635,-4.914 0,0 1.831,3.854 5.03,5.481 -1.588,0.931 -2.897,1.343 -4.489,1.343 z m 9.801,2.437 c -0.769,-1.346 -1.337,-2.752 -1.337,-2.752 0,0 3.162,0.205 4.86,-1.552 -1.059,0.477 -2.746,1.077 -4.711,0.896 L 32.171,22.62 C 31.996,22.41 31.07,21.763 30.843,21.654 29.62,23.126 24.866,28.211 20.463,30.728 14.889,27.687 13.718,18.74 13.6,16.882 l 3.045,0.292 c 0,0 -1.144,2.029 -1.144,3.522 0,1.493 0.178,1.572 0.178,1.572 0,0 -0.038,-2.603 1.569,-4.613 1.223,6.518 2.5,9.858 3.495,11.848 0.507,-0.21 1.451,-0.629 1.451,-0.629 0,0 -2.813,-8.108 -2.656,-13.596 0.887,-0.474 2.074,-0.952 3.428,-1.203 -0.033,-0.351 -0.107,-0.702 -0.259,-1.053 -1.023,0.238 -2.121,0.619 -3.149,1.223 0.09,-3.056 1.119,-5.823 2.937,-5.823 1.797,0 4.364,4.244 4.364,4.244 0,0 -1.896,-0.17 -4.152,0.355 0.152,0.351 0.226,0.702 0.259,1.053 0.594,-0.11 1.217,-0.181 1.867,-0.181 5.609,0 10.118,2.415 10.118,2.415 l -1.765,2.464 c 0,0 -1.573,-2.848 -3.792,-3.355 1.171,0.873 2.482,2.027 3.163,3.688 C 27.909,17.287 22.3,16.327 20.5,16.117 c -0.157,0.664 -0.136,1.612 -0.136,1.612 0,0 7.523,1.389 12.997,4.522 -0.036,6.854 -7.498,12.114 -8.529,12.725 z m 7.126,-5.12 c 0,0 2.337,-3.065 2.298,-7.126 0,0 3.773,2.337 3.773,4.617 10e-4,2.547 -6.071,2.509 -6.071,2.509 z"
         inkscape:connector-curvature="0"
         style="fill:#0288d1" />
      <path
         id="path4447"
         d="m 17.808,37.492 c 0,-0.544 0.323,-1.731 0.76,-2.355 0.738,-0.372 1.361,-0.856 1.361,-0.856 0,0 -0.46,0.695 -0.46,1.283 0,0.167 0.118,0.814 0.992,0.974 0.126,0.023 0.267,0.036 0.426,0.036 1.264,0 2.872,-0.953 2.872,-0.953 -5.165,4.629 -5.951,1.937 -5.951,1.871 z m 0.837,-8.095 -0.062,0.03 -0.075,0.044 c -0.293,0.172 -0.568,0.315 -0.836,0.44 0.553,0.49 1.167,0.939 1.848,1.285 0.294,-0.14 0.737,-0.362 0.944,-0.467 -0.669,-0.365 -1.271,-0.819 -1.819,-1.332 z m -5.243,2.646 c -0.419,-0.375 -0.547,-0.907 -0.547,-1.414 0,-2.049 1.635,-4.914 1.635,-4.914 l -0.803,-1.67 c 0,0 -4.048,6.088 -0.298,8.026 0.008,-0.023 0.004,-0.003 0.013,-0.028 z m 24.561,-4.258 c -0.655,2.104 -6.005,2.071 -6.005,2.071 l -1.017,1.578 c 0,0 0.303,0.009 2.373,0.01 0,0 4.24,-0.346 4.649,-3.659 z M 33.23,24.446 c -10e-4,0 0.346,0.222 0.801,0.574 0.144,-0.714 0.233,-1.481 0.225,-2.291 -0.198,-0.118 -0.704,-0.389 -0.893,-0.476 -0.004,0.727 -0.107,1.432 -0.262,2.12 0.05,0.028 0.098,0.055 0.129,0.073 0,0 0,0 0,0 z m 5.269,-4.708 c 0,1.109 -1.056,1.096 -1.056,1.096 l -0.802,0.053 1.43,0.739 c 4.616,-0.189 1.067,-3.781 -2.112,-4.735 0.255,0.147 2.54,1.577 2.54,2.847 z M 21.933,8.525 c 0.179,-0.062 0.365,-0.1 0.562,-0.1 1.797,0 4.364,4.244 4.364,4.244 l 1.815,0.113 c 0,0 -0.417,-0.876 -1.108,-2.073 -0.95,-1.538 -3.873,-3.068 -5.633,-2.184 z m -6.745,1.663 c -1.781,-0.188 -1.729,4.938 -1.553,5.499 0,-2.978 1.167,-3.822 1.737,-3.822 0.571,0 1.131,0.695 1.361,1.284 -0.025,-0.878 -0.022,-1.628 -0.022,-1.628 0,0 -0.711,-1.177 -1.523,-1.333 z m 6.369,4.142 c 0.01,-0.348 0.044,-0.677 0.082,-1.002 -0.696,0.227 -1.403,0.521 -2.081,0.919 -0.017,0.419 0.003,0.607 -0.02,1.033 0.56,-0.299 1.25,-0.594 2.015,-0.838 0.002,-0.036 0.003,-0.07 0.004,-0.112 z m 3.254,20.646 c -0.769,-1.346 -1.337,-2.752 -1.337,-2.752 0,0 3.162,0.205 4.86,-1.552 -1.059,0.477 -2.746,1.077 -4.711,0.896 -0.416,0.432 -0.916,0.765 -1.456,1.123 l 1.571,2.931 c 0,0 1.196,-0.719 1.073,-0.646 z m 0.861,1.794 c 0.241,-0.149 -0.834,0.637 -0.834,0.637 0,0 2.472,4.109 4.585,5.992 0.57,0.508 1.114,0.6 1.114,0.6 0,0 -2.099,-2.021 -4.865,-7.229 z M 39.766,6.873 c -0.298,1.953 -3.476,7.575 -3.728,7.768 -0.31,-0.145 0.945,0.411 0.945,0.411 0,0 0.685,-1.456 1.113,-2.269 C 38.524,11.97 39.729,8.796 39.837,8.071 39.972,7.16 39.766,6.873 39.766,6.873 Z m -4.814,9.439 -1.765,2.464 c 0,0 -1.573,-2.848 -3.792,-3.355 0.894,0.667 1.868,1.5 2.583,2.594 0,-0.004 0,-0.01 0,-0.015 0,0.005 0,0.011 0,0.015 0.221,0.339 0.42,0.701 0.581,1.093 0.919,0.35 1.713,0.634 1.637,0.603 0,0 1.43,-2.205 1.764,-2.82 0.094,0.055 -1.008,-0.579 -1.008,-0.579 z M 16.936,15.811 13.635,15.687 c -0.052,0.334 -0.032,0.855 -0.034,1.197 l 3.045,0.292 c 0,0 -1.144,2.029 -1.144,3.522 0,1.493 0.178,1.572 0.178,1.572 0,0 -0.033,-2.312 1.31,-4.261 -0.004,-0.004 -0.008,-0.005 -0.011,-0.009 0.004,0.004 0.008,0.006 0.011,0.009 0.082,-0.119 0.167,-0.236 0.259,-0.352 -0.208,-1.178 -0.313,-1.846 -0.313,-1.846 z m -5.381,-0.064 c -3.982,0 -7.332,0.89 -7.632,0.976 -0.3,0.086 -1.242,0.771 -0.813,0.685 0.871,-0.279 4.963,-0.912 8.545,-0.601 -0.073,-0.661 -0.1,-1.06 -0.1,-1.06 z"
         inkscape:connector-curvature="0"
         style="fill:#01579b" />
    </g>
    <text
       xml:space="preserve"
       style="font-style:normal;font-weight:normal;font-size:12.5px;line-height:125%;font-family:sans-serif;letter-spacing:0px;word-spacing:0px;fill:#000000;fill-opacity:1;stroke:none;stroke-width:1px;stroke-linecap:butt;stroke-linejoin:miter;stroke-opacity:1"
       x="162.14285"
       y="833.07648"
       id="text4459"
       sodipodi:linespacing="125%"><tspan
         sodipodi:role="line"
         id="tspan4461"
         x="162.14285"
         y="833.07648" /></text>
    <text
       xml:space="preserve"
       style="font-style:normal;font-weight:normal;font-size:10px;line-height:125%;font-family:sans-serif;letter-spacing:0px;word-spacing:0px;fill:#000000;fill-opacity:1;stroke:none;stroke-width:1px;stroke-linecap:butt;stroke-linejoin:miter;stroke-opacity:1"
       x="37.14286"
       y="1039.505"
       id="text4463"
       sodipodi:linespacing="125%"><tspan
         sodipodi:role="line"
         id="tspan4465"
         x="37.14286"
         y="1039.505">Login with Battle.net</tspan></text>
  </g>
</svg>
